<svg xmlns="http://www.w3.org/2000/svg" xmlns:xlink="http://www.w3.org/1999/xlink" width="500" zoomAndPan="magnify" viewBox="0 0 375 374.999991" height="500" preserveAspectRatio="xMidYMid meet" version="1.0"><defs><clipPath id="532295c6ff"><path d="M 8.882812 9 L 365.882812 9 L 365.882812 365.882812 L 8.882812 365.882812 Z M 8.882812 9 " clip-rule="nonzero"/></clipPath></defs><g clip-path="url(#532295c6ff)"><path fill="#b40606" d="M 356.65625 221.824219 L 249.730469 291.964844 L 187.476562 240.667969 C 187.441406 240.429688 187.445312 240.191406 187.378906 239.953125 C 174.445312 194.757812 194.28125 178.3125 195.085938 177.667969 C 195.769531 177.148438 196.324219 176.476562 196.703125 175.703125 C 199.238281 170.554688 198.140625 166.855469 196.773438 164.65625 C 195.074219 161.925781 192.261719 160.453125 189.5 159.65625 L 242.769531 159.65625 C 245.84375 159.65625 248.335938 157.160156 248.335938 154.085938 C 248.335938 151.011719 245.84375 148.519531 242.769531 148.519531 L 234.34375 148.519531 C 233 96.960938 194.621094 54.46875 144.878906 46.753906 C 148.59375 42.777344 150.882812 37.449219 150.882812 31.574219 C 150.882812 19.269531 140.910156 9.300781 128.609375 9.300781 C 116.308594 9.300781 106.335938 19.269531 106.335938 31.574219 C 106.335938 37.449219 108.625 42.777344 112.339844 46.753906 C 62.597656 54.46875 24.21875 96.960938 22.875 148.519531 L 14.449219 148.519531 C 11.375 148.519531 8.882812 151.011719 8.882812 154.085938 C 8.882812 157.160156 11.375 159.65625 14.449219 159.65625 L 46.683594 159.65625 C 42.773438 162.335938 40.542969 166.347656 39.753906 168.9375 C 39.121094 171.007812 39.742188 173.253906 41.347656 174.703125 L 149.707031 272.382812 C 149.851562 272.507812 150.007812 272.605469 150.160156 272.71875 L 231.070312 356.308594 C 231.589844 356.796875 241.285156 365.71875 256.101562 365.71875 C 260.574219 365.71875 265.519531 364.902344 270.820312 362.792969 L 361.816406 325.679688 C 364.660156 324.519531 364.34375 321.453125 364.867188 318.425781 C 365.28125 316.042969 366.054688 225.996094 364.367188 223.425781 C 362.679688 220.851562 359.230469 220.128906 356.65625 221.824219 Z M 177.539062 159.65625 C 161.914062 164.316406 147.621094 186.453125 144.164062 192.15625 C 141.429688 194.011719 138.253906 194.917969 134.480469 194.917969 C 121.433594 194.917969 67.523438 160.15625 66.488281 159.65625 Z M 128.609375 20.4375 C 134.75 20.4375 139.746094 25.429688 139.746094 31.574219 C 139.746094 37.714844 134.75 42.710938 128.609375 42.710938 C 122.46875 42.710938 117.472656 37.714844 117.472656 31.574219 C 117.472656 25.429688 122.46875 20.4375 128.609375 20.4375 Z M 117.472656 73.339844 C 120.546875 73.339844 123.039062 75.832031 123.039062 78.910156 C 123.039062 81.984375 120.546875 84.476562 117.472656 84.476562 C 114.398438 84.476562 111.902344 81.984375 111.902344 78.910156 C 111.902344 75.832031 114.398438 73.339844 117.472656 73.339844 Z M 58.707031 126.839844 C 63.820312 107.878906 76.679688 91.585938 93.984375 82.144531 C 96.6875 80.671875 100.066406 81.667969 101.539062 84.367188 C 103.011719 87.066406 102.019531 90.449219 99.316406 91.921875 C 84.667969 99.917969 73.785156 113.699219 69.460938 129.738281 C 68.789062 132.222656 66.542969 133.863281 64.085938 133.863281 C 63.605469 133.863281 63.121094 133.800781 62.632812 133.664062 C 59.664062 132.867188 57.90625 129.808594 58.707031 126.839844 Z M 153.488281 260.566406 C 153.304688 260.472656 153.125 260.371094 152.933594 260.292969 L 52.164062 169.457031 C 53.007812 168.667969 54.199219 168.007812 55.832031 168.007812 C 57.980469 168.007812 60.761719 169 63.867188 170.871094 L 100.507812 193.023438 C 102.835938 194.761719 118.5625 206.054688 134.480469 206.054688 C 141.089844 206.054688 146.902344 204.152344 151.765625 200.394531 C 152.332031 199.957031 152.8125 199.417969 153.171875 198.796875 C 159.539062 187.898438 173.214844 170.410156 182.777344 169.886719 C 184.308594 169.886719 185.679688 170.117188 186.570312 170.382812 C 180.90625 175.933594 164.484375 196.476562 175.765625 239.714844 Z M 153.488281 260.566406 " fill-opacity="1" fill-rule="nonzero"/></g></svg>